<svg xmlns="http://www.w3.org/2000/svg" width="344.4" height="116.5">
  <defs/>
  <g fill-rule="evenodd" clip-rule="evenodd">
    <path d="M25 83l-1 2v-1l1-1zm-3-1v1-1zm-1 4l-1-5v-1l1 6zm2-5v1l-1-1h1zm0-2v1l-1-1v-4l1 4zm-5-7l1 5-1-4v-1zm-1-3l1 2v1l-1-2v-1zm10 0l-1 3 1-3zm-7-5v5l2 12-3-17h1zm-1-7l1 6-1-6zm11-2v4-2-3 1zm-1-1v1l-1 9h-1l2-8v-2zm-13-2l3 17a483 483 0 01-3-16v-1zm16-3l-1 4v-4h1zm-17 3l2 12a327 327 0 01-2-12zm2-8l1 8v1l-2-9h1zm1 0v2l3 13-1-1-2-14zm-5-10l1 4v2l-1-6zm20 0l-2 10v4a71 71 0 010-7l1-7h1zm-23-7l1 1v4l-1-5zm24-3l-1 5 1-5zm-21 6v1l-2-7v-1l2 7zM8 14l2 7H9v-2l-1-4v-1zm2-1v5l-1-4v-1h1zm26-2l-1 3 1-3zm2-2v2-1l-1 2 1-3zm-3 0v2l-1-1 1-1zM7 9l1 3H7V9zM2 8l3 4 2 1 1 8v2l1 5 1 5a510 510 0 018 50l-3 5v1l5-1 6 1v-1l4 1h1l-2-3-2-3 2-10 1-6v-1a155 155 0 003-19l3-21 3-13 2-3c1-1 2-1 2-3l-4 1h-1-1-1l-6-1h-2v1c2 0 3 2 6 6l-1 6a140 140 0 00-3 18v6l-3 19-1 7v1l-2 7-3-18a2489 2489 0 00-5-37l-2-11h1l2-4h-4L9 7H8 4v1H3L2 7v1z"/>
    <path d="M49 83v2l-1-1 1-1zm-2-1l-1 3v-1l1-2zm-2-3v6h-1v-4-2h1zm4-3v4-4zm-2-1v5-5zm-1-3v3l-1 3 1-1h-1v-1h1-1l1-4zm1-15v2-2zm2-6v9l-1-8 1-1zm2 0v7l-1-2h1-1l1-1v-4zm-5-4v2-2zm1 0v7-7zm-2 0l1 2-1 1h1l-1 1 1 5-1 2V47zm-1-11v7a59 59 0 010-3v-1-1-2zm5 0v3l1 1-1 2v-2-4zm-1-1v3h-1v-3h1zm-3-8v22h-1v-1-3l1-5-1-1 1-3v-9zm4-7v5-5zm-4-1v7l-1 2v-8-1h1zm5-1v9l1 1-1 1h1v2l-1 1v-1-2-11zm-4 0h-1v2-2h1zm3-2l-1 1h1v3-4zm-3-2l-1 2v-2h1zm1-2v11-11zm-1-3v3-3zm-2 0v2l-1-1V9h1zm-2-1v2l-1-2h1zm-3 1l4 4v49-3h1v10l-1 1h1v2l-1 2v8l-4 5-2 2v1l1-1h4l3 1 1-1 1 1 1-1h2l1-1v1l1-1 3 1-1-2-3-3 1-1-1-1v1-17-3-2l1 2v11l-1 3h1v-8-19-10l-1-3h1v-9-4l-1-1h1v-1a184 184 0 01-1-6c0-2 1-5 4-7V8H42l-3 1zM68 88l2 1-2-1zm4 0l3-2v1l-3 2v-1zm0-3h1l-3 2v-1l2-1zm2-1l-1 1 1-1zm2-2l-1 2v-1l1-1zm-15 1h-1v-2l1 2zm3-1v-1 1zm15-3c0 2-1 3-2 3h-1l3-3zm-15-2v3-3zm1 2v-2 2zm15-7l-1 2v-2h1zm-2-1a83 83 0 000 4h1l-1-2 1-2h-1zm-13-2v6h-1 1l-1-5v-1h1zm-3 0v6l-1-5 1-1zm-2 0v2-2zm19-3v4-4zm-3-1l3 10h-1l-1-5v-5h-1zm3-1v1-1zm0 0v2-2zm-4-1l1 8-1-5v-3zm-15 0v5-5zm19-1l1 2v2l-1-4zm-2-2l-1 1 1 2-1-2 1-1zm-20-2l1 5h-1l1 1h-1 1l-1-3v-3zm7-7v8-8zm-4 0v9-9zm2 0v4-4zm-1 0v7h-1v-2-3l1-1-1-1h1zm3-4l-1 2h1v8l-1 2 1 1-1 5 1 1-1 5 1 1v-7h-2v-3l1-1v1l1-1v-4-10zm-3-5h-1v9-9h1zm-4-1l1 1h-1l1 3v10h-1l1 1h-1v1-7l1-9h-1zm3-1v20a485 485 0 000-14v-6zm1-11v4l-1 5v5-10-4h1zm19 3v1l-1-1h1l-1-1h1-1v-3l1 4zm-17-4l-1 1v20l-1-5v-3l2-13zm2-3h-1a152 152 0 010 18v-1-1-4h-1 1v-1l-1-1 1-4v-1l1-5zm-5 0v2-2zm5-10v2-1-1zm16-2v1l-1 1v-1l1-1zm-4-1l2 2v1h-1l-1-2v-1zm10 0v3h-1l1-3zm-8 1v1-3 2zm7-2v3l-1-1 1-2zm4 0l-1 3 1-3zm-16-1l2 2-2-2zm9-1l-1 2v-1l1-1zm7-4v3-1-2zm-3-1v1l-2 2 2-3zm0-2c-3 1-5 5-7 10l-2-2-4-2 1-1h1-2l-3 1-4 1-3 1-5 11a138 138 0 00-3 28v2l-1 3 1 6c1 12 3 19 4 21l-1-6 3 6c3 6 6 9 9 9l5-2h1l-1 1 2-2 3-5-2 2 2-5v-1h-1a91 91 0 002-11l-2-6c0-2-1-3-2-3-2 0-3 1-4 4l-1 4 1 2 2 10h1v1c-2 4-4 5-5 5h-1l-1 1-3-4c-1 0-2-6-2-17v-6-10l-1-4 1-1v-2-6-4-1a158 158 0 010-11h1l-1-1 1-2c0-1 2-3 5-4v2l3-1 2 1 3 5v12l1 6-1-2 2-2v1l1-1a45 45 0 01-1-6v-3-3l1-4 1-2c1-3 1-5 3-6h-1v1h1l-1 4 1 2 1 1h1v-1c3-3 4-6 4-8V5l-1-3-1-1-3 1zM110 82v0zm4-1v3-3zm-5-3v3-1-2zm-1 0v4-4zm3-2v2l-1 3v-5h1zm-3-4v0zm7-3v4-4zm-7-15v9a150 150 0 010 8l-1-8h1-1v-5-1-3h1zm5-3v6-6zm-3-3v0zm2 0v4l1 1h-1 1l-1 2h1l-1 1h1-1 1v2h-1v5l1 3v10a107 107 0 01-1-7v-2a249 249 0 000-15v-1-3zm1-9l1 5v18h-1v-5 6a40 40 0 000-4V41v5a92 92 0 000-6v-1zm-4 0v13h1l-1 1a1078 1078 0 011 18v3a215 215 0 01-1-12v-6-1-5-2-8-1zm0-14v8-1-1-6zm-14-1v0zm-1-1v2l-1 6 1-8zm33-2v3l1 4h-1v-6-1zm-18-1v3-2-1zm4 0l1 2h-1l1 2-1 4 1 3h-1v-5-2-1-3zm12 0l1 5-1-5zm1 0l1 2h-1v-2zm-15-2l1 1v1h-1l1 2v17a88 88 0 00-1 6v-7-16-1-3zm-3 3a39 39 0 00-1 4v2a69 69 0 011 4h-1l1 1h-1 1l-1 2v2-11-1-1-1-5l1 4zm3-6l1 2-1 1v-3zm-1 0v22-5-7-4-6zm-15 0v5-6 1zm1-2v5-5zm29 0h-1a56 56 0 000 3v-3h1zm-14-1v3-3zm17-1v2h-1v-2h1zm-4 0h-1-1-2 4zm2 0v5-3l-1-2h1zm-10 0h2-4l1-1 1 1zm-9-2v1H95V9h12zm3 0v1l-2-1h2zm11 0v1h-7V9h7zm7-2l-2 1h-3-3l-6-1h-4v1-1h-2v1-1l-1 1V7l-2 1h-8-1l-1-1-1 1h-1v28l2-6a40 40 0 002-11v-2-4h8l1-1 1 1v0l-1 1v4a32 32 0 010 4v9a53 53 0 010 8v9l1 13v22l-3 5-2 1 1 1v-1h1v1l1-1h3l1 1 2-1h7l1 1 1-1-3-1-1-2-1-5v-9-1-3-1-2-2-14-3-7 3-1-3a156 156 0 010-9v-3-2-1a224 224 0 010-9l1-1h7l4 17 1 7v1l1-1v-2-3l-1-1v-5-4-2 2l1 10v-1-13-9-1h-1V7zM145 85l-1 1 1-1zm5-6v1h-1v2-1l1-2zm0-4v2-2zm-13-4l1 1v1l-1 2v-4zm15-4v2h-1l1-2zm-19 0v3-3zm4-4l1 4-1 4v-1-7zm16-3v3-3zm-2 0v6-6zm-15-3v1h-1l1 1h-1l1 2v1l-1 1 1 1c-1 0-1 0 0 0l-1 2v10h1l-1-4V57h1zm18-1v4l-1 13V61v-1l1-2-1-1 1-1zm-16 0v4l-1-4h1zm15-2v4-4zm1-1v3-2-1zm-17-1h1v3h-1v-3zm-5-1v13h-1v-1l1-3h-1l1-1h-1l1-4h-1v-1l1-1-1-2h1zm1-2v3-3zm20-1v4a369 369 0 01-1 9v-2-5-2-5l1 1zm-18-2v8-8zm-2-6v3-3zm2 0h1l-1 2v2-1-1-2zm16-2l1 4v5l-1 1 1 3h-1l1 3-1 3V38zm-18-2v4-4zm24 0v10l-1 3v-3l1-1-1-1v-8h1zm-25-2v2l-1 1 1 3v3l-1 4v-1l1-1h-1v-1h1l-1-2h1l-1-1v-7h1zm0 0v6l-1 2v9-6-1-10h1zm1 0v2-2zm2-6v18a56 56 0 010 3v9h-1 1v6l-1-6 1-10-1-1 1-1-1-5V29l1-1zm8-1v3l-1-2 1-1zm8 0v3l1 4h-1 1-1v-7zm-13 0l-1 16v-7-9h1zm17 0v7h1l-1 2v6l1 1-1-2V27zm-3-1v2-2zm-13-1l1 2v1h-1l-1-1 1-2zm14 0v20-20zm1-1v12-12zm-7-1v1l-1 2 1-3zm-8-1v3l-1 1v-3-2l1 1zm-2-2v2h-1v-2h1zm10-2v1h-1v-1h1zm-5-6l-1 5h-1l2-5zm0 2l3-3 3 2 3 17h-1v8-5 15l-1 15a89 89 0 01-1 16c0 2-2 3-5 4h-1l-1-2c-1 0-2-1-2-3v-1-16l-1-1h1v-7h-1l1-1V31l-1 8v-3-4l1-3c1 2 2 3 4 3l2-1 4-7h-1l1-2-1-3c0-3-1-4-2-4l-3 3 1 4-1 2-2-3 1-1-1-1 1-5zm4-8h-2l-4 2-1-1-1 1-4 9-3 7-1 10v31l1 8c0 3 2 6 4 11 3 3 6 5 8 5h1l2-1c3-1 5-3 6-5 2-3 4-10 5-21l1-12v-9c0-8-1-16-3-23 0-2-1-5-3-7l-3-4-2-1h-1zM187 88v1h-1l1-1zm7-1l1 1h-1v-1zm-19 0v1-2 1zm-3-1v2h-1l1-2zm18-2l-1-2v-1l1 3zm-2-10v1-1zm-2-6l1 5v1l-1-5v-1zm2-2l1 9-1-8v-1zm0-2h-1v-2l1 2zm-14-3v3l1 2v4l-1 1h1l-1 1h1l-1 1 1 2-1 4h1l-1 1h1v-2h-1l1-4v-1-1-11h-1zm-1-6v13l-1 4h1l-1 1h1l-1 2v1l1 2h-1 1l-1 1v8l1 1h-1V71v-2-1-3-1-9h1zm2-1v1l-1 5h1-1l-1 13v-1-1-16l1-1h1zm1-4v3-3zm6 2l-1-1h1l-1-1v-1l1 3zm-10-3v5h-1 1l-1 2v2-9h1zm6-1h-1 1zm-2-7v5-5zm-11 0h1l-2 1 1-1zm-3-3l2 2v1c-2-1-2-2-2-3zm4 1v-1 2c-1 0-3-1-3-3l3 2zm0-2l-1-1 1 1zm4-3v10l1 2-1 5v1l1 1v1l-1 2v9-9-9-13zm5-4v6l-1 4 1-1v-1l-1-8h1zm18 0v1l-1 3v-1l1-3zm-2-2v2-2zm0-2v2-2zm-2-1a156 156 0 010 8v1l-1-1v-1-2l1-5zm-18-4l-1 2 1-2zm5 0h-1 1zm-3 0a38 38 0 000 7h-1a100 100 0 000 3v-1-1-1-4l1-3zm-4-1v2-1-1zm-6-2l-1 2 1-2zm26 0l1 3v2l-2-6 1 1zm-23-4l-2 2 2-2zm19-1l2 2 2 11-2-10-2-3zm4 2v1l-2-3 2 2zm-7-5l3 2-3-1v-1zm-6-1v1h3v1l-3-1V9zm-2 0h2l-3 1h-1v1l-2-1h1l1-1h2zm-10 3l-4 6-2 11v1l2 7c1 4 2 6 4 6s3-1 3-5l-1-4c-2 0-3-1-4-4v-1l-1-3v-1c0-2 1-4 4-7 0-2 1-3 2-3l1-1 5-2h5c3 0 5 1 5 2h1l1 1 2 12v2c0 8-1 12-2 12v1l-2 2h-1c0 1-1 2-3 2h-1-1-1V22l1-1 2-1-1-1h-4-10v1h1l4 3-1 2 1 7v3l-1 1a44 44 0 011 4v4l-1 5 1 1v8-1 24l-1 5-2 2h-1l-1 1 1 1h2v-1l4 1h4l3-1 1 1 1-1c-1-1-3-2-4-5V73v-1-6a389 389 0 002-16h1l1 3 2 4a221 221 0 006 27l-2 4-2 1 1 1h-1 1l2-1 1 1 1-1 7 1 1-1h3l-1-1-3-2c-1 0-2 0-2-2l-1-3a590 590 0 00-7-29v-1h1l-2-1 1-1-1-1 3-3 3-3 3-14v-3-2 2l-1-3v-3l-4-5-1-2-1-2-3-1-3-1h-2-5V7v1h-1c-5 1-8 2-9 4zM234 88h-1 1zm15-1h1v1h-1v-1zm-13-2l1 1h-2l1-1zm15-1v1l-1 1 1-2zm-13 1v0-2 2zm13-4v2h-1l1-1v-1zm-12-1h1l-1 2v-1-1zm-1-1v1-1zm14-2v6-1-5zm1 0v2-2zm-14-2v2-2zm13-3v4h-1v-2h1-1l1-2zm-12-1v4-4zm15 0v4h-1v-4h1zm-2-3v0zm-17-1v3-3zm17-3v1l-1-1 1-1h-1l1 1zm-1-6v7-1-2-4zm2-6v3-3zm-16 0v20a61 61 0 010-5v2a95 95 0 000 4v-1 1h-1v-6l1-15zm1-3v3-3zm13-2v3-3zm-6-5h4v1h-1l-4-1h1zm-8-1v8l-1 3v-5-1-5h1zm12-1h-2 2zm-10-2v1a41 41 0 000 6v19l-1 7v-1-2a423 423 0 000-10v-9l1-2h-1 1v-4-5zm-5-2v45l-1-1V68h0v-2l1-1-1-1v-1l1-1-1-1h1l-1-1h1l-1-1h1l-1-1 1-15v-7zm5-4v1-1zm12-2a95 95 0 000 8v1-4-5zm-13-2v2-2zm-11 1l-1-1 1 1zm7-2v3-3zm-12-1l1 4-1-4zm31-1v18l-1 12v1a143 143 0 010 6v-3-1-1-1-2-1-3-11-1-1a61 61 0 001-4v-4-4zm-2-2v5l-1 3h1l-1 2v6-6l1-10zm-17 0v0zm4 0v4-2-2zm-16-1v1-1zm12-1v2-1-1zm6-1v19-8-6-1-4zm-1-1v0zm-15-3l-1 3 1-3zm-1 0l-1 2 1-2zm11 0v3-3zm3 0v3h-1v-4l1 1zm2-2v2l-1 1h1-1 1l-1 2v-5h1zm12-1v1-1zm-25 0l-1 1h-1l2-1zm10-1v2-2zm2-1l-1 1v2-3h1zm-4 0h-1-1l2-1v1zm7-2v1l-1-1h1zm-2 0v0zm-8-2h-1l-6 6c-2 2-3 6-4 9v4l1 3c0 2 1 3 5 4l1-1v1l1-3v-1l1-1-1-1v-1l-3-2-1-2 1-3 3-4c0-1 1-2 3-2h1l1-1v1a250 250 0 010 17v22a60 60 0 010 3v26l-2 5h1-1v1l-3 2h2l1 1v-1 1-1l1 1 3-1h7v-1-2l-1-4v-5-14-3-1a43 43 0 010-9v-4l8-1v10l1 6v12a71 71 0 000 5l-1 5-2 4-1 1h-1v1h7v1l1-1 5-1v1c0-2-1-2-3-3v-1l-1-1v-2-8a57 57 0 000-4v-1-3-3-14-1-2-1-2l1-7-1 1v-1-8a51 51 0 010-6v-3-7l3-3 2-1-1-1-1 1-1-1v1-1l-1 1-1-1v1l-1-1-2 1h-4l3 4v2l-1 12 1 1-1 1v3a46 46 0 010 3v6l-1-1v1-1l-1 1v-1l-6 1v-9-1a289 289 0 012-21l1-2-1 1h-1l-3-1h-8z"/>
    <path d="M274 87h1l-1 1v-1zm-4-2l2 1v1h-1l-1-2zm11-4l-2 3 2-3zm-16-5v0zm1-7v4l1 4v-2l1 8-1-4-1-6v-4zm2-4v2h-1l1-2zm13 0v3-3zm2-1v3h-2l1-3h1zm-19-6l1 4-1 1 1 2v4l-1-7v-4zm3-1v13-13zm0-4v2-2zm-2-2v13l1 2-1 1v-4-1a100 100 0 01-1-7l1-1v-2h-1l1-1zm2-2v2-2zm-3-3l1 1-1 4v1-1-5zm3-5v2-2zm-1-2v2h-1v-1-1h1zm-1 1v3h-1v-4l1 1zm16-13l2 5v4h1l-1 11v6-5l-2-11V27zm-16-3l1 2-1 2v-4zm18-3v2h-1v-1l1-1zm-15 0v17h-1 1v3h-1v-9l1-5h-1l1-4h-1l1-2zm-5-4v9-9zm22-3v2-2zm-4-1v3-3zm2-2v3-3zm-3-2l1 1h-1l-1-1h1zm-13 4l1-4-1 5v22-23zm-1-4v2-2zm-2 0v2-2zm-1 0V8v1zm15-2h-1v1l1 1 3 3v34-3-1 9a84 84 0 010 6v19l-2 6-3 3h-4l-2-4-1-11v-5-1-7-1-38-5l1-1 2-5-1 1V7l-2 1-1-1v0h-10l-1 1 5 4v22a375 375 0 00-1 26l1 4v1l1 7v2c1 6 3 10 5 14l4 2h4c3-1 5-3 5-4 2-3 4-6 4-10V19v-7l4-4-8-1h-3zM299 112v1-1l1 1h-1v-1zm-4-3v3-3zm10-5v1l-1 2 1-3zm-14-6v4h-1v-2l1-2zm6 0l-1 1 1-1zm-5-1l-1 5 1 4-1-2v-3l1-4zm2-1l-2 7 2-7zm13-4v4h1l-1 2v-6zm4-2v4-1-3zm-1 5v-5 3l-2 7 2-5zm-2-6v3l-1 4 1-2-1-1 1-2v-2zm-1-1v4h-1 1v-4zm4-3l1 2-1 2v-4zm-15-3l1 2v1l-1-2v-1zm11-1v2-2zm4 0h-1v4h1l-1 2v7h-1l1-13v-1l1 1zm-7 2l1-3-2 4v-1h1zm-9-3v1-1zm-3-1v1l1 1-1-2zm15 0v9l1 1h-1v3-9l1-1-1-2h1-1v-1zm4-11v2l-1 1 1 1-1 1v2l1 1-1 3v-1l1-2-1-2v-1l1-3-1-2h1zm-21-2v0zm5-1v8l-1 1h1v-3-6zm-3 0l1 6v1h-1v-7zm15 0v6-3l-1-1 1-1v-1zm0-1v4-2-2zm2-2l1 1-1 11 1 2-2 1 1 7h1l-2 4V71v-9h1zm-16-3v1-2 1zm15-1v1l2 1h-2v-2zm-18-1l1 13-1-8v-5zm-1-1v2-2zm1-2v3-3zm20-5v1l1 1-1 1 1 1-1 2v7-3h1-1v-1l1-1-1-2v-1l1-1-1-2v-2zm-2-2v3h-1v-3h1zm-13-1v18l-1 1v1h1v9l-2-8v-6 1l1 2v-2-7l1-1v-8zm10-4h1v1h-1l-1-1h1zm-15-1v2l-1 4 1 1-1 1v-3a45 45 0 010-3v-3l1 1zm2-3l1 2h-1v16l1 1-1 1v14l-1-10v-3-1-14l1-6zm-2 0v2-2zm5 0l-1 7v7l-1 1v1-15l1-1h1zm-2-5v2-2zm2-3v1h-1 1v4l-1 1h1l-1 6h1v-4-5l-1-3h1zm0-3v3-3zm16-4v3-1l-1-2h1zm-14-3l-1 5 1 1-1 2v4-5l1-7zm11-1c2 1 3 2 3 4h-1l-2-3v-1zm4 1l-1 1v1l-1-2v-1l2 1zm-4-4l1 2h-1l-1-2h1zm3 0l1-4-1 5-1-1h1zm-6-5l2 4-2-3v-1zm-4-2l-2 2 2-2zm10-1l-2 6 2-6zm0-4v2l-1 6h-1l-7-5c-2 0-4 1-5 3l-5 9-4 18v7a115 115 0 000 8v14l2 11c1 5 2 8 4 9l4 3 3-1c1 0 2-1 3-5h1v2l1 1-1 1h1l-1 2v5l-2 14c0 2-1 2-4 2h-1l-2-4 3-4-1-5h1l-1-2-3-2h-2l-3 3c-1 0-2 2-2 6v6l6 5 6 2 6-2 4-3 1-5V83 47l1-2 2-3v-1h-9l-3 1h-1l1 1v1h1l1 3 1 5v15-1 11l-2 5-3 3v-1l-1-1v0-1h-1l-2-6V65v-3a425 425 0 011-34v-7l1-6h1l1-1h-1l4-3h1l2 4 4 12 1 5v2h1l-1-5v-2a70 70 0 011-7V2 1l-1 3zM329 85h1l-1 1h-1l1-1zm5-6v1h-1l1 1v1h-1v-1l1-2zm0-4v2-2zm-12-4v4-4zm15-4v2h-1l1-2zm-19 0v3-3zm4-4v8-1-7zm15-3v3l1-1h-1v-2zm-1 0v6-6zm-16-3v15-15zm19-1v4c0 7-1 12-2 13V61h1l-1-1h1-1l1-2v-2h1zm-17 0v0zm15-2v2l1 1h-1v3l1-1h-1l1-1h-1v-4zm2-1v3-2-1zm-17-1v3l-1-3h1zm-5-1v13h-1v-1l1-3h-1l1-1h-1v-5l1-1-1-2h1zm1-2v3-3zm19-1v15h-1l1-1-1-1 1-2-1-1 1-1v-3l-1-2 1-5v1zm-17-2v8-8zm-2-6v3-3zm2 0v4-1-1-2zm16-2l1 4-1 1h1l-1 1 1 1v2l-1 1 1 3h-1l1 3-1 3V38zm-18-2v4-4zm23 0v13-4l-1-1 1-1v-2l-1-1h1-1 1v-4zm-24-2v2l-1 1 1 3v3l-1 4v-1l1-1h-1v-1h1l-1-2h1l-1-1v-7h1zm-1 0v17-6-1-10zm2 0v2-2zm1-6v4h1-1l1 1-1 1v12a55 55 0 010 3v15l-1-6 1-10-1-1 1-1-1-5V29l1-1zm8-1l1 3-1-2v-1zm9 0v3l1 4h-1 1-1v-7zm-14 0v16-7-9zm18 0v7h1l-1 2v6l1 1-1-2V27zm-3-1v2-2zm-13-1v3l-1-1v-2h1zm13 0v20-6h1-1V25zm2-1v12-12zm-7-1v1l-1 2 1-3zm-9-1v3l-1 1 1-2v-1-2 1zm-1-2l-1 2v-2h1zm9-2v1-1zm-4-6l-2 5 1-5h1zm0 2l3-3 2 2c2 2 2 8 3 17v8h-1v-5 15l-1 15a89 89 0 01-1 16c0 2-1 3-4 4h-2v-2c-2 0-2-1-3-3l1-1-1-15V31v8l-1-3 1-2h-1v-2l1-3h1l3 3h1l1-1c2 0 3-2 4-7v-2-3c0-3-1-4-2-4l-3 3 1 4-1 2h-1l-1-3v-1-1l1-5zm4-8h-2l-4 2-1-1-1 1-5 9-2 7-1 10v1h-1 1v10l-1 1 1 1v18l1 8c0 3 1 6 4 11 3 3 6 5 8 5h1l2-1c3-1 4-3 6-5 2-3 4-10 5-21l1-12v-9c0-8-1-16-3-23l-3-7-3-4-2-1h-1z"/>
  </g>
</svg>
