<svg xmlns="http://www.w3.org/2000/svg" width="504" height="720">
  <defs/>
  <g fill-rule="evenodd" clip-rule="evenodd">
    <path d="M155.2 98h.2c-.1.6-.2.8-.3.8v-.6l.1-.3zm-1.3-.6v.3l-.1.6-.2-.3.1-.6h.2zm-.5 2c-.3-.7-.4-1.6-.6-2.8v-.1c.2 0 .4 1 .6 2.8zm.8-2.9l.1.9s-.2-.2-.2-.9h.1zm0-.6v.1l-.3-.3.1-.2-.2-1.9c.1 0 .3.8.4 2.3zm-2.5-3.9l.3 2.6c-.2 0-.3-.8-.5-2.5h.2zm-.3-1.7l.2 1.2-.1.1-.2-.9v-.4zm5.3-.2l-.1.1v.1c0 .7 0 1.3-.4 1.8 0-.2 0-.9.4-2zm-4.2-2.5a51 51 0 011.3 9.4h-.2c-.8-5-1.2-8.1-1.2-9.3v-.1h.1zm-.2-3.8c.2 1.2.4 2.2.4 3h-.1a17 17 0 01-.5-3h.2zm6.1-1.3v.2l-.2 2h-.2v-.5l.1-.6v-.1c0-.6 0-1 .2-1.2l.1.2zm-.6-.5v.5l-.9 5.1-.2-.1.9-4.6c0-.6 0-.9.2-.9zm-7-.8a71 71 0 011.5 8.8v.1h-.1a263.6 263.6 0 01-1.4-8.4v-.5zm8.3-2.1l-.4 2.5h-.1l.3-2.5h.2zm-9 1.6c.6 3.2.9 5.4 1 6.8h-.1a178 178 0 01-1.6-10.9c.3.5.5 1.8.8 4.1zm.8-4l.6 4v.5c-.2 0-.4-1.5-.7-4.5h.1zm.7-.2a96.7 96.7 0 011.4 8.4v.1s-.2-.3-.3-1c-.8-4-1.2-6.4-1.2-7.4v-.1h.1zm-2.5-5.4l.5 2.4-.1.8c-.3-1.2-.5-2.1-.5-2.9v-.3h.1zm10.5-.2c-.2 3.2-.5 5-.7 5.5 0 1.1-.2 1.8-.3 2.1h-.1a38.5 38.5 0 01.4-3.4l.6-4.2h.1zm-12.2-3.4l.3.6-.1.1c0 .6.2 1.1.4 1.5l-.2.5-.5-2.7zm13-1.8l-.4 3v-.4c0-1 0-2 .5-2.6zm-11.6 3.5c-.2 0-.5-1.1-.8-3.5v-.3c.3.6.6 1.9.8 3.8zm-2.5-8.8s.4 1.2.8 3.6v.3l-.1-.3v.2c-.2 0-.3-.3-.3-1-.1-1.3-.3-2.2-.6-2.6v-.2h.2zm.8-.4l.3 2.1v.3a16 16 0 00-.4-2.2V60h.1zm14.2-1.3c0 .9 0 1.3-.2 1.3h-.1c0-.9.1-1.3.3-1.3zm1-1.1l.4.1v.1l-.2 1h-.2l.1-.3V58l-.5 1.2V59c0-1 .2-1.5.4-1.5zm-1.4-.1l-.1 1c-.3-.2-.4-.4-.4-.6.1 0 .3-.1.5-.4zm-15 0l.2 1.5h-.2V59l-.3-1.4h.3zm-3-.7c0 .4.5 1.1 1.4 2.3l1.2.7.7 4.4v.8h.2l.6 3.1.4 2.4L149 80c.5 3 .8 4.6 1 4.6.5 4.1 1.1 8.3 2 12.7-.2.2-.3.3-.3.5s-.7 1.1-1.8 2.9c.1 0 .2 0 .2.2a15.9 15.9 0 015.7-.1l.1-.1 2.4.2h.3c-.4-1-.7-1.5-.9-1.5-.1-.3-.5-1-1.2-1.8v-.1c.5-3.1.8-5 1-5.4.3-1.8.5-2.9.7-3.2v-.4a84.5 84.5 0 001.9-10.2l1.6-11.4 1.2-7c.7-1 1-1.5 1-1.7.7-.5 1.3-1 1.5-1.6h-.2c-.6.2-1.4.3-2.2.3H161.6c-2.2-.1-3.3-.3-3.3-.4h-1.4c0 .2.1.3.4.3.7 0 1.6 1.2 2.9 3.5a76 76 0 00-1.7 13l-.5 3.1-1.6 10.5-.6 3.5.1.3-.1.5v.2c-.2 2-.5 3.3-.7 3.7a1361.2 1361.2 0 00-4.5-30l-1.1-5.8v-.2l.3.1 1.5-2.2c0-.2-.2-.3-.6-.3h-1.3l-.4.1c-1 0-1.7-.2-2.2-.3h-.7s-.5-.2-1.6-.3l-.5.3v.2h-.3c-.2 0-.3-.1-.5-.5 0 .3-.2.5-.2.5z"/>
    <path d="M168.4 98v1l-.2-.5.1-.5zm-1-.7v.2L167 99v-.6c0-.8.2-1.2.5-1.2zm-1.2-1.8V99.1h-.1V96.8v-1.3zm2.1-1.4v2.2-2.2zm-.8-.6V96v-2.6zM167 92v1.5l-.4 1.7V95v-1.2c.3-.9.4-1.5.4-1.9zm.5-8.3v1.1-1.1zm1.2-3v4.1c0 .2-.1.3-.4.3v-4.5h.4zm.9-.4V84l-.4-.6.2-.3h-.2l.4-.6v-2.3zm-2.6-1.8v1l.2-1h-.2zm.5-.2V82v-1.5l-.1-.2v-2h.1zm-.9 0v.2l.4.7-.4.5.4.1-.4.7c0 .8.1 1.7.4 2.9l-.4.6v-1.3-4.4zm-.8-6v2.4l-.1 2.2v-.7-1-1-.2-.4-1.2zm3-.3v.4l-.1.4v1.1l.1.5v1.2l-.1-1.4c0-.2-.1-.4-.4-.6l.4-1.6zm-1-.2V73.5h-.3V71.8h.4zm-1.6-4.2v11.7h-.1v-.4-1.1-.6-3.4c0-.9.1-1.4.2-1.6h-.1v-4.6zm2.1-3.8c0 .2.2.4.4.5V66h-.3l.3-2.3h-.4zm-2.1-.8V67l-.4 1.2v-4l.2-.6-.2-.1.2-.4h.2zm3-.8v5l.4.7-.5.6.5.1-.1.1v.8l-.3.8h-.1v-1V68.7v-6.5zm-2.2.1c0 .1-.1.2-.4.2v.9-1.2l.4.1zm1.3-1.2v2.5-2.5zm-1.3-.7l-.4 1v-1h.4zm.5-1v.2l-.1.5v.2l.1 1.6V63l.1.3v1.8h-.1v-2.7-3zm-.3-2c-.1 1.1-.2 1.6-.3 1.6l.1-1.5h.2zm-1.3 0l.1.8v.2c-.5-.1-.7-.3-.7-.5v-.5h.6zm-1.4-.4c.2.2.4.5.4.8v.1c-.4-.2-.6-.4-.6-.7v-.1l.2-.1zm-1.5.6c.4 0 1.2.8 2.3 2.4V86.5 85h.4v2l.1.7v2.6l-.5.6h.4v.7a4 4 0 00-.4 1.6v4.2c-1.1 1.9-2 2.8-2.3 2.8-.6.3-1 .6-1 .8l.1.4c.3 0 .4-.2.4-.5l.8.1.6-.1h.1l1 .2v-.1c.8 0 1.2.2 1.2.4l.8-.4c0 .3 0 .4.2.4h.2c.2-.3.4-.4.6-.5l.8.1c.3 0 .5 0 .7-.2l.2.1.2-.1 1.8.2h.2l-.6-.8c-.9-.5-1.5-1-1.7-1.6.2 0 .3-.3.4-1-.1 0-.2-.2-.2-.5h-.2v.6-4.1V88.5 86.7 86h.2c0 .5 0 .9.2 1.1V93l-.1 1.4h.1v-4V80l.1-1v-4.7l-.2-1.3.1-3v-2.3-2l-.1-.3v-.9l.1-3c0-.1-.1-.2-.4-.3 0-1 .7-2.3 2.1-3.9v-.1c0-.1-.3-.3-1-.4h-1.4l-.1.3-.3-.3-.2.2v-.2h-.7a3 3 0 01-.9.1h-.3l-.2.2V57h-.2c-.4 0-.9 0-1.5-.2-1.2 0-1.9.4-1.9.8zM178.8 100.4l1.1.5c-.5 0-1-.1-1.2-.5h.1zm2.4.3l1.4-1v.3c-.2.3-.7.5-1.4.9v-.2zm0-1.7h.2c-.3.6-.8 1-1.3 1h-.2l-.1-.3a5 5 0 001.5-.7zm1-.5c-.1.3-.3.5-.6.5l.6-.5zm.8-1.4h.1c-.2.9-.4 1.3-.5 1.3v-.5l.4-.8zm-8 .8h-.2V96.7c0 .4 0 .8.3 1.2zm1.5-.6v.3V96.7v.6zm8.3-1.4c0 .8-.4 1.2-1 1.2h-.5l1.3-1.2h.2zm-8.3-1.3v1.7-1.6zm.8 1c0-.1 0-.4-.2-.6v-.5s.2.4.2 1.1zm7.8-4v1.1-1zm-.5-.5a45.3 45.3 0 000 2.1v-.9-1.2zm-7.3-.7v2.8l-.4.1h.4c-.3-.8-.5-1.6-.5-2.3l.1-.6h.4zm-2 0c.2.4.3 1.4.3 2.8v.4c-.2-.2-.3-1.2-.4-3 0-.2 0-.3.2-.3zm-1-.4v1.2V90zm10.3-1.3V91v-2.2zm-1.3-.8c1 3 1.3 5 1.3 5.6h-.2c-.4-.6-.6-1.4-.6-2.6v-3h-.5zm1.8-.6v1-1zm-.5 0v1.4V87.4zm-1.7-.2l.4 4.5c-.5-.5-.7-1.5-.7-2.8v-.2l.3-1.5zm-8.1-.2v1.3l-.1.2v1.3V87zm10.1-.6l.5 1.4v.5c0 .1 0 .2-.2.2l-.4-2h.1zm-1.1-.8l-.5.1.2 1.5-.3-1.2.3-.7.3.3zM173 84.2l.2 2.5v.8c-.1 0-.2 0-.2.2h.5c-.3-.8-.5-1.5-.5-2v-1.5zm3.5-3.6V84.8v-4.2zm-1.8 0l-.4 1.5h.1v.3l.4.6v2.5-4.8h-.1zm1-.3v2.3h-.2v-2.3h.1zm-.8 0V84.2h-.1l-.1-1V81.5l.1-.6v-.5zm1.6-1.8l-.3.6.3.2V84l-.3.8.3.5v3.4l-.3 2.4.3.8v.1-4.2.4h-.9V86.4l.6-.3.2.1v-2.5l.2-.2-.1-.1V78.5zm-1.7-3V76.9c-.3.2-.5.3-.5.5l.5.3v2l-.5.9h.5v-5.3.2zM173 75s0 .2.2.3h-.2l.2 1.6c0 2.5 0 4.4.3 5.5h-.5l.5.6-.5.3v.2-2.8l.1-.5V80c0-1.9 0-3.6.4-5h-.5zm1.3-.4v10.9V85.1a264.3 264.3 0 000-7.4v-3.2zm.6-5.9V71l-.1 2.3-.1 1.7v1.2-4.3V70.5v-1.8h.2zm10.7 1.2h-.1V70.9c-.1 0-.3-.2-.4-.5l.1-.2a.7.7 0 01-.1-.5v-.2V68c.3 0 .4.7.5 2zm-9.5-2l-.5.5v10.8h-.1a18 18 0 01-.2-2.6v-1.8c0-4.2.3-6.6.8-7zm1.2-1.9s-.1.2-.4.3a83 83 0 01-.4 9.6v-.4-.3-2.3l-.1-.2V71.8 69c.4-.8.6-1.8.6-3h.3zm-2.5.2l-.2 1h.2V66zm2.5-5.3v.1c0 .6-.1.9-.3.9v-.4l.3-.6zm8.5-1v.3l-.1.8-.2-.2v-.6l.3-.3zm-2-.6v.1l.8 1.1v.2h-.1l-.8-1v-.4zm5.4-.3l-.1 2c-.2 0-.2 0-.2-.2v-.1c.1-1.2.2-1.7.3-1.7zm-4.1.9c0 .1 0 .2-.2.2l-.3-1.3c.2 0 .4.4.5 1zm3.7-1.2l-.2 1.5h-.1V60c0-.8.2-1.2.3-1.2zm2-.3v.1c0 .6-.3 1.2-.7 1.9 0-.3.2-1 .7-2zm-8.5-.4v.1c.5 0 .8.4 1 1.3-.7-.6-1.2-1-1.3-1.3V58h.3zm4.7-.7l.1.3c0 .4-.2.7-.4.8 0-.8.2-1.1.3-1.1zm4-1.8c0 .3 0 .8-.2 1.4v-.2l.1-1.2h.2zm-1.8-.4h.3c-.7.9-1.2 1.3-1.5 1.3.5-.9.9-1.3 1.2-1.3zm-.2-1.4c-1.3.8-2.5 2.6-3.6 5.4l-1-1.2c-1.2-.7-2-1-2.3-1 0-.2 0-.3.4-.4v.1h.5v-.2h-.9c-1 .1-1.4.3-1.4.5a8 8 0 00-2.4.5c-.6.6-1 .9-1.4 1-1 .6-2 2.6-3 6a75 75 0 00-1.7 14.8v1l-.3 1.8v.1a59.3 59.3 0 002.6 14.5h.3l-.7-3.4h.1l1.3 3.5c1.6 3.4 3.3 5.2 5 5.2.8 0 1.8-.6 3-1.6l-.3.9v.1h.1l1-1.5 1.7-2.6h-.1l-1 1.1h-.2l1-2.8v-.2h-.1a49.5 49.5 0 00.7-6.4c0-1.4-.2-2.4-.6-3-.6-1-1-1.6-1.5-1.6-.8 0-1.4.7-1.8 2.1l-.6 2.3c0 .6.1 1 .3 1.1 0 2 .4 3.7 1.2 5.3l.5.2-.1.4c-1 2-2 2.9-3 2.9v-.1l-.8.2c-1-.5-1.5-1.2-1.8-2.2-.4 0-.6-3-.8-9.1v-3a.6.6 0 01-.3-.6l.3-2.6.1-.2v-2.3l-.5-1.9.4-.6V75l.1-3.2v-2.4-.4a85.7 85.7 0 01.1-5.8v-.5c.2-.2.3-.6.3-1.1 0-1 1-1.7 2.7-2.2h.1l-.2.6h.1c.3-.3.8-.4 1.5-.4s1 .3 1 .6a9.7 9.7 0 011.7 2.5V69.6c0 2 .3 3 .7 3h.1l-.4-.8c.1 0 .3-.3.6-1h.1l.4.6c.3 0 .5-.3.5-.7H186.4a24.3 24.3 0 01-.4-3.3v-1.6-1.6c.2-.6.4-1.4.4-2.2.4-.5.6-.8.6-1a8 8 0 011.5-3.7l-.1.3v.4h.2c-.2.7-.4 1.4-.4 2.1 0 .6.2 1.1.4 1.5.5.2.6-.1.8.4v-.3s.4.7.5.5l-.2-.3.2-.3c1.3-2.1 1.8-3.6 1.8-4.5l.3-1.6c0-.7.1-.5-.7-1.6-.4-.1-.6-.3-.6-.6l-1.7.4zM202 97.1v1.2h-.1l-.2-1.2h.3zm2-.2V98.6l-.2-.4v-1.3h.1zm-3-1.7l.2 1v.3h-.2V96v-.9zm-.3-.1v2.1h-.2l.1-.2v-1.9zm1.3-1.3V95c0 1-.1 1.5-.3 1.5l.1-2.7h.2zm-1.2-2.1v.9h-.1V92v-.4zm3.6-1.3v2h-.2v-2h.2zm-3.9-8.2l.1 2.6V86.6h.2l-.1.2a81.5 81.5 0 010 4.9v-.3l-.3-4.4v-2.6-.4-2l.1.3zm3-2v2l-.2.5.1 1h.1v-3.5zm-1.8-1.3l.1 1v3l-.1-1v-.4c0-.7 0-1.5-.2-2.3l.1-.3zm1.3-.1V81l.1.2v3.1l-.3-.2.2 2.8c0 1 .2 1.5.2 1.5V92l.1 1.5v.6h-.2a58.2 58.2 0 01-.2-3.7v-1.3l-.2-4.4a166.8 166.8 0 01.1-3.8v-.6-1.5h.2zm.6-5l.1 2.7v9.7l-.1-1.9v-.6c-.1 0-.2.1-.2.3V85l.1 1.6v.3h-.2a21.9 21.9 0 000-2.2V82l-.1-1.1v-1.4V75l.1 1V78l.1.6v1h.1V77.7a50.2 50.2 0 000-3.4V74zm-2.5-.2l.3 2.9h-.1V77l.1 4h.1v.1a585 585 0 01.5 10.1l-.1 1.5a117.4 117.4 0 01-.5-6.6l-.1-.9v-2.4-.2l-.2-3v-1-4.4-.6zm0-7.1l.2 1.7v2.3h-.2v-.6-.5l-.1-.5v-2.4h.1zm-7.4-1v.9c-.1 0-.2 0-.2-.3 0-.4.1-.6.2-.6zm-.5-.4V66.4c0 2.1-.2 3.3-.4 3.4v-.1l.3-4.6h.1zM211 64c0 1 0 1.4.2 1.4l.2 2.2-.2.1a33 33 0 01-.5-2.8l.2.1v-.9l.1-.1zm-9.9-.2v2.6L201 65V64l.1-.2zm2.5-.3l.1 1.3v4.8l-.3-.8.1-.3v-1.8-.1-1.1-.1-.1-1.8h.1zm6.5 0l.6 2.9h-.1a37 37 0 01-.7-2.9h.2zm.5-.2l.1 1.4-.3-1.4h.2zm-8.2-.9l.2.8v.2l-.1.1.2 1-.1.4V71.1l.1 2.8a48.2 48.2 0 00-.3 3.4v-.6l.1-.1v-3.2-1.7l-.2-1.8v-5.3l.1-.5v-1.7zm-1.9 1.5a21 21 0 00-.1 2.6v.7a37.7 37.7 0 010 2.2v.7c0 .6 0 1-.2 1l.2 2.5v2h-.2v-3-.2-2.7l-.1-.1V66l.1-.4v-.2-.4-.3l.1-2.6c.2 0 .2.5.2 1.7zm2-2.9v1l-.2.3V61h.1zm-.8-.2l.1 1v1.3l.1 2.7v6.9-1.3h-.2l.1-.3V70.2 70 66.5l-.2-1.8v-.8V60.8zm-8.1-.2V63.8h-.1V60.4v.2zm.5-1v2.7-2.4l-.2-.2.2-.1zm15.6 0v.2h-.2v.1a30.2 30.2 0 000 1.4c0-.6 0-1-.2-1.2v-.4l.4-.1zm-7.4-.4v1.2h.1v.4h-.1v-1.6zm9-.4v1h-.2l-.1-.1c0-.6 0-1 .2-1h.2zm-1.7-.4v.3h-.4-2v-.1l1.3-.2h1.1zm.7 0v.7l.1.8v.3l.1 2.7v.3l-.1-.5-.1-1V59.8l-.2-1.3.2-.2zm-5.5 0h1.4v.3h-1.1l-.1-.1h-1.2v-.2h1zm-4.4-.9v.1c0 .2-.2.3-.5.4l-.7-.1h-.2v.1l-.2-.1-.2.1v-.1l-.2.1-.9-.1v.1l-.1-.1-4 .2v-.5H196.4c.6 0 .9 0 .9.2l.4-.3c.5.1.7.2.7.3l2-.3zm1.1.3v.2c-.4 0-.6-.2-.6-.4h.5l.1.2zm6 0c-.3 0-.5.2-.7.3l-1.2-.1h-.1l-.1.1-.2-.1H204c0-.1 0-.3-.2-.5l3.9.3zm4-1.4c0 .4-.4.6-1 .6h-2.1l-1.3-.1h-.1c-1.2 0-2.2-.1-3-.3l-1 .1h-1l-.1.2-.2-.2h-1v.2l-.2-.2-.1.2-.2-.2-1.3.3h-.7v-.1h-.2-3.1-.3-.4l-.8-.2c-.2 0-.4.1-.4.3v-.1h-.6v1.7l.1.2v1.8l.1.6V64l-.2 5.3v.4l.2-1.4v.5c0 .8 0 1.6-.2 2.3v1h.2l1-3.3a21.6 21.6 0 001.2-5.7V62c0-.8 0-1.6-.2-2.3l1.7-.1h3v-.1l.6.2.3-.1.2.4v.6c-.2-.5-.3-.8-.5-.8s-.3.3-.3.7l.2.3c0 .7-.1 1.2-.2 1.3h.1v.4a17.6 17.6 0 010 2.3v1.9l-.2-.1-.1.2c.2.7.2 1.5.2 2.5v.1a28.9 28.9 0 010 4.2l-.1.6v.8l.1-.5h.1v4.3l.2 7V88.9l.3 8.8-2 2.7c0 .1-.2.3-.8.6l-.1.2c.4 0 .7.2.7.2h2.8l.6.1 1.1-.3v.1h3.5l.7.4.5-.5c0-.2-.5-.5-1.4-.9l-.9-1-.6-2.4v-3.3h.2v-1.7-.1-.3V89.4 89v-1.2-.7-3.3l-.1-.2v-1V79.5v-.4-1.6-3.8l.2 1.7V75v-.3V73a85 85 0 01-.3-4.4v-1.9V65.7v-.1-.4a121.4 121.4 0 01.1-5c.2-.2.5-.3.8-.3h1.2l.4-.1v.1l1.9-.2v.1l.2-.1h.1c.1 2.5.8 5.5 2.1 9.2l.6 4 .1.3V73c0-.2.3-.1.2-.6v-.7L212 70c-.4-1-.3-.5-.3-.5v-1.1l-.2-1.7h.1l-.1-.8v-.2l-.1-.2v-.7-.1-1h.1l.1.9c.2 3.6.4 5.4.5 5.4h.1v-.7l-.1-3.8-.1-.3v-2.7l.1-2.6.1-.1v-2.2c0-.5 0-.7-.2-.7h-.2l-.1-.5zM220.7 99.2l-.5.4.5-.4zm2.6-3.5v.6-.2c-.2 0-.4.1-.4.3v1-.7c0-.3.1-.7.4-1zm0-2.3v1.3-1.3zm-6.7-2l.2.6v.5l-.4 1.2v-2.3h.2zm8-2.5v1.4h-.5l.5-1.4zm-10.2.2l-.1 1.5v.1V89.1zm2.2-1.9l.2 2c-.2.8-.4 1.4-.4 1.9v-.5-3.5l.2.1zm8.4-1.7V87v-.1l.1-.2v-1zm-.9-.4v3.3V85zm-8.5-1.4l.1.6h-.1V92v-8.3zm10.3-.6v2l-.1.2c-.1 4-.4 6.3-.8 6.9v-5-1.6-.4l.6-1.2h-.3l.3-.9h.3zm-9-.2v2.5l-.5-2.3.5-.2zm8.1-1.1V85v-.3V81.8zm.9-.1v.2l-.1.2v1V82v-.3zm-9.5-1h.4v1.9h-.4l-.1-1.7.1-.1zm-2.6-.4v7.2l-.4.2v-.6l.4-1.5-.4-.5.4-.1-.4-.2v-2.9l.4-.6-.4-1h.4zm.5-.8V81v-1.4zm10.7-1v2.7a199.6 199.6 0 01-.4 4.6v1h-.2l.2-.4c0-.1 0-.3-.2-.4l.2-1c0-.3 0-.5-.2-.6l.2-.7v-1.9l-.2-.7.2-2.7.4.1zm-9.4-.7v4.3-4.3zm-1.1-3.5V76h-.2v-1.3c0-.2 0-.2.2-.3zm1-.1c0 .2 0 .3.2.4l-.1.7V76.7 76v-.5-1.4zm8.6-1.1l.5 2.2-.2.6v.2l.2.2h-.2v.3c.1 0 .2.2.2.7v.8c-.3 0-.4.2-.5.5v.1l.5 1.5v.2l-.5.2.5 1.3c0 .4-.2 1-.5 1.7v-4.3l.1-.2v-6zm-9.8-.8v2.4-2.4zm12.9 0v5.6c-.2.8-.3 1.2-.5 1.2v-1.2l.5-.6c-.4 0-.5-.2-.6-.6l.1-.6v-1.5V72.2h.5zm-13.4-1v.7c0 .4-.1.8-.4 1 .3.4.4.8.4 1.2v2c0 1.4-.1 2-.4 2V78l.4-.7-.4-.3v-.2l.4-.1-.4-1v-.2h.4l-.4-.7v-3.4h.4zm-.3 0V76.6l-.2.2h.1l-.2 3.4h-.1V77 77v-.3c0-2.4.2-4.1.3-5.4zm.8-.4v1.3-1.3zm.9-3v9.7a30.4 30.4 0 010 2v4.6l-.1.2V84.7l.1.6V87.7l-.5-3.6c0-1.2.1-3 .4-5.5l-.4-.6.4-.3-.4-2.6v-6.4c.2-.5.3-.8.5-.8zm4.3-.4c0 .8.1 1.3.4 1.4v.1h-.3c-.2 0-.3-.4-.3-1v-.2l.2-.3zm4.6-.1V69c0 .5.2 1.1.5 2l-.5.1v.1l.5.2h-.1c-.2 0-.3 0-.4-.2v-3.8zm-7.3 0c0 3.4-.1 6.2-.4 8.4v-3.4-5h.4zm9.5-.2V71h.4l-.3 1.4v1.3l-.1 2 .4.3c-.2 0-.3-.4-.4-1.3v-7.5zm-1.7-.2V68 67zm-7.1-.6c0 .2.1.4.4.7v.8h-.2l-.5-.5v-1h.3zm7.5-.4v11V66zm.9-.5v.5l-.1.4v5.7-6.6zm-4-.1v.1c0 .4-.1 1-.5 1.5l.5-1.6zm-4.6-1V66.2c-.2.5-.3.7-.5.7v-.1l.2-1.3v-.2-1.1c.2 0 .3 0 .3.2zm-.9-.7l-.2.8v.2h-.2v-1.1l.4.1zm5.2-1.3l.1.5v.4l-.2-.2v-.7h.1zm-2.3-3.2l-1 2.8c0-.6.1-1.5.6-2.8h.4zm.1 1l1.5-1.6c.4 0 .9.4 1.4 1.1.6 1 1 4.2 1.5 9.3v4.4h-.5v-2.6 7.7c0 3-.2 5.7-.5 8.3a48.2 48.2 0 01-.5 8.7c0 1-.8 1.9-2.3 2.5l-1-.4c-.2-.6-.4-.9-.5-.9-.6 0-1-.6-1.2-1.8 0 0 .1-.2.4-.3l-.4-8v-1l-.1-.2v-14l.2-.2-.1-.1v-1.5-.2l-.3 4.3-.1-1.3.1-1.1-.2-.1V70c0-.4.2-1 .5-1.7l.4.3c.6.8 1.2 1.2 1.7 1.2h.5c.4 0 .6 0 .8-.3.6 0 1.3-1.2 2-3.7v-.3-.7-1.6c-.2-1.7-.6-2.6-1.2-2.6-1 .6-1.6 1.2-1.6 1.8 0 .1 0 .8.3 2v.3c0 .6-.1 1-.4 1-.2 0-.2-.1-.2-.2-.4 0-.6-.4-.8-1.3 0-.3 0-.6.2-.9 0 0 0-.2-.3-.3.3-1.6.5-2.5.7-2.7zm2-4.3h-1.2c-.6 0-1.3.4-2.1 1.1l-.3-.3h-.2l-.7.4a13 13 0 00-2.2 4.9 29.1 29.1 0 00-2.1 9v.5l-.1.2v11.9l.4 4.3c0 1.4.1 2.8.5 4.3 0 1.7.7 3.6 2 6 1.6 1.9 3.2 2.8 4.5 2.8h.5a3 3 0 001.2-.3 8.7 8.7 0 003-3 32 32 0 003-11.4l.4-6.5V74.9c0-4.3-.5-8.4-1.6-12.2-.3-1.4-.9-2.8-1.5-4l-.2.2a8 8 0 00-1.7-2.3c-.8-.2-1.2-.4-1.2-.7h-.4zM243.7 100.6c.1 0 .2 0 .2.2l-.4.2-.2-.2v.2c0-.2.1-.4.4-.4zm3.8-.5l.5.5h-.4c-.1 0-.2-.1-.3-.5h.2zm-10.2-.1h-.1V100.6H236.8l.1-1c.1 0 .2 0 .3.4zm-2-.7v1.2h-.1l.1-1.2zm10-.9h-.1c-.2-.2-.3-.6-.4-1.3v-.2c.3.4.5 1 .5 1.5zm-1-5.7v1-1zm-1.2-2.8l.6 2.4v.5c-.3-.2-.5-1-.7-2.4v-.5h.1zm1.3-1.2l.4 4.8h-.1l-.4-4.2v-.6zm-.4-1.3h-.2V86.7l.2.8zm-7.2-1.4v1.5l.2.8V91l-.2.3V92.3c0 .3 0 .7.2 1.2l-.2 2V96h.2v-.9h-.4c.3-1.1.4-2 .4-2.4l.1-.2-.1-.8V87l.1-.3v-.9c-.2 0-.3.1-.3.3zm-.8-3.5c0 1 0 1.7.2 2.2-.3 0-.4.3-.4.6v2.3c0 .3.1.6.4 1a4 4 0 00-.4.7l.4.4-.5 2 .1.2V100.1l.4.3h-.5v-9.2c0-.2-.1-.6-.4-1l.4-.3-.4-2v-.3l.4-5.1h.3zm1-.5v.5l-.6 2.7.6.1h-.6c0 1.7 0 4.2-.2 7.3v-.9-.3V82.7l.2-.8.6.1zm.7-2.1h.2l-.4 1.8v-1.8h.2zm3.3 1h-.1l-.3-.6h.1l-.1-.7v-.3l.4 1.6zm-5.7-1.6v1l.1.3-.2 1 .1.2-.2.1v.1l.2.2c-.1 0-.3.3-.3.7l.1.1h-.1v1.3h-.1V79c.3 0 .4 0 .4.2zm3.6-.7v.3h-.7v-.1l.7-.2zm-1-3.8v2.6l-.2.3h-.2v-2.9h.4zm-6 0h.1l.2.1c0 .3-.3.4-.9.6h-.2v-.1l.8-.6zm-2-1.3l1 1.2v.2c-.7-.3-1-.8-1-1.4zm2.1.2l.3-.1v.7c-.8 0-1.5-.5-2-1.7.6.7 1.2 1 1.7 1zm0-1v.3c-.2 0-.4-.2-.6-.6v-.1l.7.5zm2.5-1.6v5.5l.4 1.1-.4 2.9V80.9l.4.7v.4a2 2 0 00-.4 1v2l-.1.2v.5h.1V88v-4.3l-.1-.8V78.1l.2-1.3-.1-.4V71zm2.4-2.1l.1 2v1.5l-.2 1.7h-.2l.4-.5.1-.2-.3-4.5h.1zm10-.2v.5l-.4 1.6c.1-1.4.2-2.1.4-2.1zm-1.1-1v.3c0 .4 0 .7-.2.7v-.5l.1-.6zm.1-1v.8h-.1v-.9h.1zm-1-.5a85.3 85.3 0 010 4.5v.1h-.1l-.5-.3.1-.4v-.3-.7c.2-1 .4-2 .4-2.7v-.2h.1zM235 64c0 .8-.2 1.1-.4 1.1 0-.7.2-1.1.4-1.1zm2.6-.1v.2l-.3-.1-.2-.1h.5zm-1.3 0a20.6 20.6 0 00-.4 3.8v.2a55.6 55.6 0 000 1.6l-.1-.7v-.5-.1-.4-2l.1-2h.4zm-2.3-.1v1h-.3v-1l.1-.3c.2 0 .2 0 .2.3zm-3.5-1.6v.2l-.6 1c0-.4.2-.8.6-1.2zm14.4.3c.2 0 .5.6.7 1.7h-.1v1.1l-1-3.5c.2 0 .4.2.4.7zM232 60h.2l-1 1.1c.4-.8.7-1.1.8-1.1zm10.8-.1l.7.7c.7 2 1.2 4 1.3 5.9v.1h-.1l-1.1-5.6c-.1 0-.2 0-.2.2-.4-.5-.7-1-.7-1.3h.1zm2.1 1a1 1 0 00-.1.4c-.2 0-.5-.5-1-1.4v-.1l1.1 1zm-4-2.6c1 .2 1.5.4 1.5.6l-1.7-.5v-.1h.1zm-3-.6v.3h.1l.7.1.2-.1.5.1c0 .1-.1.3-.4.4l-1.5-.3.3-.3v-.2zm-1.5-.2h1.1v.2c-1 .2-1.6.4-1.7.6l-.1-.2v.2l-.1-.2-.4.3-.7-.1v-.2s.1-.2.4-.3v.1h.1l.7-.3.1.1.6-.2zm-5.2 1.4c-.6.9-1.3 2-2 3.7-.4.8-.8 2.7-1.1 5.9v.5c0 1.1.2 2.4.7 4 .5 1.7 1.2 2.8 2 3.2h.2c1 0 1.7-1 2-3 0-.8-.4-1.4-1-1.9-.9 0-1.6-.7-2-2.1v-.7c-.2 0-.3-.5-.3-1.6v-.6c0-1 .5-2.4 1.7-4 .5-.8 1-1.3 1.3-1.3l.4-.7a6.2 6.2 0 013-1.2h.6c.1 0 .2 0 .3-.2l.9.3s.2-.2.8-.3v0c1.9.3 2.9.7 3 1.3l.2-.1c.4.1.6.4.6.8.4 0 .9 2 1.3 6.3v1.2c-.1 4-.4 6.3-1 6.7l-.4-.4v.4c.1 0 .2.1.3.4-.3.6-.8 1-1.3 1.3l-.1-.2-.2.2c0 .4-.6.7-1.8.9h-.1l-.4-.1-.4.2-.5-.3V64.6l.4-.5c.6-.2.9-.3.9-.5v-.2c0-.2-.2-.3-.6-.3h-1.7-.5-.4a3 3 0 00-.7 0h-2.1H231.3l-.1.3v.2h.1l.4.1c1 .5 1.7 1 1.9 1.7V71.7l-.1.5a24 24 0 01.2 2.2l-.1 1v1.4l-.1 2.6.1.2v4.7-.5l.2 3.4V96.6c0 1.8-.2 2.7-.5 2.7-.7.6-1.1 1-1.2 1.5-.1 0-.2 0-.3-.2l-.6.4.6.4h1l.1-.2c.3.2 1 .2 2.1.2h.6l.2.5.1-.5.3.5v-.5h.8c.9 0 1.5 0 1.8-.2 0 0 .3.2.7.2 0-.1.1-.2.3-.2v-.3c-.6-.3-1.4-1-2.3-2.3v-6.3-.4-3.4l.4-7.4c0-1 .3-1.4.8-1.4v.1h.4c.4 0 .7.5 1 1.6v.3l.6 2.2a120.2 120.2 0 003.6 14.5l-1.3 2c-.6.3-.9.5-.9.7v.2l.2.1v.2l.3-.2.2.1 1-.2.4.1.5-.2 4 .2c.2 0 .3-.1.3-.3l.7.1.8-.3-.1-.3c-1-.2-1.7-.5-2-.9-.5 0-.8-.4-1-1.3l-.4-1.5a320.8 320.8 0 00-3.9-16.1v-.1c0-.2.1-.2.3-.2v-.1c-.4-.2-.6-.3-.6-.5v-.4c0-.3-.2-.5-.3-.5v-.2c.9-.3 1.4-.8 1.6-1.4.5-.1 1-.7 1.7-1.7a30 30 0 001.6-7.8v-1.6l-.1-1.3h-.1l.1 1.2-.2-1.5-.4-1.8c-.7-1.5-1.4-2.4-1.8-2.6-.3-.7-.5-1-.6-1v-.4c-.4-.2-.7-.4-.7-.6-1-.2-1.6-.5-1.6-.6v.1c-.3 0-.8-.3-1.7-.9h-.6l-.1-.1h-2.9l-.1-.1h-.5c-2.6.6-4.2 1.4-4.9 2.3zM269.5 100.4v.1h-.8v-.1h.8zm8-.2h.5v.1l-.6.1h-.1l.1-.2zm-7.1-1h.1l.1.3-.9.2h-.1v-.3l.8-.2zm8.2-.8v.5c0 .4-.1.6-.4.6.1-.8.2-1.1.4-1.1zm-7.1.7l-.1.5h-.2l.1-.4V97.9l.2 1.2zm7-2.2v.3l-.1.6h-.2V96.9h.2zm-6.3-.8v1.5l-.2-1V96h.2zm-.8-.7v1h-.2v-.8c0-.1 0-.2.2-.2zm7.6-.7V96c0 .7 0 1.5.2 2.2l-.1.2v1h-.1l-.2-1.4v-.7c0-1.7 0-2.6.2-2.6zm.6-.3l.1.2v2.8h-.1l-.1-1.6v-1.4zm-7.5-.8V94.5l.1.2v.6c-.1 0-.2-.2-.2-.7v-1h.1zm6.8-1.7v2l-.2.1v-1l.1-.2v-1zm-6.2-.3v1l-.1 2.7-.2-.8.1-1v-1.2l.1-.2v-.5zm7.8-.1v2.2h-.2v-2.2h.2zm-1-1.7l.1 1.4v.6l.1.2v1.5l-.4-.1.2-3.6zm-9.1-.5v1.2h-.2v-1.3h.2zm9-2v.6l-.1-.6v-.5l.2.5zm-.3-3.1v4.2l-.1-.4v-.6-.3V86.2v-2h.1zm1-3v1.2-1.2zm-8.7 0V86.3l-.2 5v.6h.1a33 33 0 010-2.7h.2v.9a52 52 0 00-.2 2.2V92l-.1.6c-.1 0-.2-.1-.2-.3V89c0-2.6.1-5.1.3-7.7zm.5-1.7v1.7-1.7zm7.2-1.1V80v-1.6zm-3.2-3l.2.1H276.7l.4.1H277.9v.3h-.7c-.6 0-1.2-.1-1.7-.3l.4-.2zm-4.7-.5v4.3l-.1 1.9h-.2v-2.6-.6c0-1.3 0-2.3.2-3zm6.7-.6h.1l-.1.3h-1v-.2l1-.1zm-5.3-1v.4a22 22 0 000 3.2c0 .3 0 .4-.2.4l.3.7h-.1l-.2 7.2.1.2v1.8l-.3 4.3-.1-.5v-.3-.9a229.4 229.4 0 00.1-5.4V82v-3.7-.1-.3h.2v.3h.1a9 9 0 01-.1-1.6v-.5l.1-3h.1zm-2.7-1l-.1.6V96.3c0 .4 0 .6-.2.7l-.1-.6v-8.6-1.6-1.6-.3l.1-8.2.1-.6v-3.3l.2.2zm2.6-2.3v.9h-.1v-.7l.1-.2zm6.7-1.2a51.6 51.6 0 000 4.7v1.8h-.1l-.1-1.2v-2.2l.1-3zM272 68v1-1zm-6 .7h-.1c-.3-.3-.5-.5-.5-.7.4 0 .6.2.6.7zm3.9-1.2V69h-.1v-1.5zm-6.6-1c0 .4.2 1.2.7 2.5-.2 0-.5-.6-.8-2v-.4zm16.8 0v7.4l-.2 1.9h.1l-.3 7 .1.1v.1a77.8 77.8 0 01-.3 3.2V84.6v-.5-.5-.5l.1-1V82v-.4V80v-.1l.2-5.3v-.8-.4-.4a33.4 33.4 0 000-2.2v-1.9l.1-.2.1-2.3h.1zm-1.2-1.3v3c-.1 0-.2.4-.2 1.3l.1.3-.2 1 .1.2v2c0 .9-.1 1.3-.2 1.3v-2.9-.5l.3-5.7zm-9 0v1h-.1V66v-.7zm2.2-.1v2.2h-.2v-1V65h.2zm-8.8-.6l-.1 1-.1-.2v-.8h.2zm6.6-.2v.8l-.2-.1.1-.3v-.2-.3h.1zm3.2-.8l.1 1.1v3.7l-.2 5.5h-.1v-4.4-.1-2.7l.2-.6-.1-.1v-2.4h.1zm-.5-.3v1.5c0 1.5 0 2.2-.2 2.2l-.1-.1v-.1l.1-3.4v-.1h.2zm-8.1-1.7l-.6 1.6.5-1.6zm-.5-.2l-.6 1.4c.2-.8.4-1.3.6-1.4zm5.9 0v1.6l-.1.2v-1.9zm1.3-.2v1.7h-.1v-2l.1.3zm1-1v2.8h-.2l.2-2.8zm6.8-.2v2h-.1v-2.3l.1.3zm-13.8-.3v.3c-.3 0-.5.3-.5.5h-.1c.2-.5.4-.7.6-.8zm5.7-.3l-.1 1.1c-.1 0-.2 0-.2-.2V60l.1-.8.2.1zm.9-.5l-.1.2v1h-.2l.1-.5v-.7h.2zm-1.8-.4c0 .1-.2.2-.5.2l-.3-.1-.3.1h-.2v-.1c0-.2.3-.3.9-.5l.1.2.1-.3.2.5zm3.4-.8l.4.4v.3l-.6-.6v-.1h.2zm-.9 0v.7l-.1.2-.1-.7v-.2h.2zm-4.4-1h-.7c-1 .3-2 1.3-3.2 3-1 1.4-1.6 3.1-1.8 5.1v1.9l.1 1.9c0 1.1 1 1.8 2.8 2l.7-.2v.1c.5-.3.7-.8.7-1.6v-.5c0-.2 0-.3.3-.3-.4-.4-.6-.7-.6-.9h.2v-.3h-.2c-.6 0-1-.4-1.4-1-.1-.3-.4-.6-.8-1 0-.7.2-1.3.6-1.5v-.5c.7-1.2 1.2-2 1.6-2.1h.3c0-.6.4-1 1.4-1.2.5 0 .7.1.7.4.3-.2.4-.4.4-.5V59l.1.5-.1.5.2 5.8c-.2.9-.3 1.9-.3 3V79.2l.2.5-.1.4v.8a32.6 32.6 0 010 2V96.3l.1.3h-.1a7 7 0 01-.9 2.7h.1v.1l-.1-.1-.4.8c-.4.6-.8 1-1.1 1v.1h1l.3.1H268.4l1.8-.4h.9l3-.1.2-.3-.3-.9-.4-2.1V95l-.1-.3v-.2-3.1h.2l-.3-1.9.1-.7v-2-.1-1.4-.4a23.5 23.5 0 010-5.1l-.1-1v-1l4.4-.7c.2.1.2.3.2.7v2l.1.8v1.5l.1.3V86l.2.2h-.1l.1 2.9v3.3a38.4 38.4 0 000 2.5c-.1.1-.3 1.1-.5 3 0 .8-.3 1.5-1 2-.2.2-.4.4-.4.6h-.7l-.2.4 1.5.3 2.3-.2.2.4.5-.5c.7 0 1.6 0 2.6-.2h.2c0-.5-.5-1-1.6-1.3v-.4c-.5-.3-.8-.6-.8-.9h.1v-1l.2-3.5v-.9a31.2 31.2 0 00-.1-2.3v-.2-1.9V87 79.2v-.5-.9-.3-.2-1c.1-2 .3-3.3.4-3.8-.1 0-.2.1-.3.4h-.1v-.7V68a27.9 27.9 0 01.1-3.4v-1.7l-.1-3v-.5c1-1 1.4-1.4 1.4-1.6.7-.2 1-.5 1-.8l-.1-.2h-.4l-.5.1-.2-.1-.2.1v-.1l-.6.1-.3-.1-.1.1c0-.1-.2-.2-.6-.2-.2.3-.6.4-1.1.4h-1.1l-.4.1H277c0 .6.5 1.4 1.5 2.3v.1l-.1.3v.6l-.1 6.6v2.4a25 25 0 010 1.8l-.2 2.9H277c-2.2 0-3.3.1-3.3.3l-.1-.1.2-4.1-.1-.6v-.4l.3-9.1c0-1 .2-1.7.8-2v-.4l.7-1-1 .2h-.3a3 3 0 01-1.3-.3h-.4l-2.8-.3-1.5.4z"/>
    <path d="M291 100c0 .1.3.2.7.2l-.5.6h-.3l-.1-.4v-.2l.2-.1zm-2-1.2l.8.9v.1h-.5l-.5-1h.1zm5.6-2.1l-.8 1.6c.4-1 .6-1.5.8-1.6zM286 94l.1.8-.3-.8h.2zm.3-4l.1 2.2.6 2h.2l-.1-1 .5 4.5a13 13 0 01-.4-2.2c-.3-.6-.6-1.7-.9-3.3V90zm1.3-2.2v1.3h-.4l.4-1v-.3zm7.3 0l-.2 2.5h.2V90v-.7-1.5zm.9-.2v1.6c0-.2-.3-.3-.9-.3l.4-1.3h.5zm-10.3-3.3c0 1.2.2 2 .2 2.3V88.4c.1 0 .2.4.2 1.3v.3h-.2l-.2-3.5v-2zm1.7-.9V91v-7.5zm0-2v1-1zm-1.3-.8v1.2l.2 2.9h-.2l.2.2v2.4l.2 1.1c-.1 0-.2.2-.2.7l-.3-1.6.1-.2v-.5-.3a54.4 54.4 0 01-.2-3.8l.1-.6v-1.3l.1-.2zm1.3-1.2v1.1-1.1zm-1.6-1.9c0 .2 0 .4.3.7-.2 0-.3.7-.4 2v.7-.7-2.6h.1zm1.6-2.4v1-1zm-.9-1l.1.5v.5h-.5l.2-.6v-.3-.2h.2zm-.5.1V76h-.3v-1.9c.2 0 .3.1.3.2zm9.1-7v.2c.2 1.5.5 2.3.9 2.4v2.2h.4l-.4 6v3.5-2.8c0-.8-.3-2.7-.9-5.8v-5.7zm-8.8-1.4c0 .3 0 .7.2 1l-.2.8h-.2V65.9h.2zM296 64v1.3h-.5v-1l.5-.3zm-8.2-.2v2.6c0 3.4-.1 5-.2 5l.2 1.1v.4l.1.3-.5.2h.4l.1.3V75c0 .2-.2.2-.5.2v-5.4c0-.7.1-1.5.4-2.3v-.2h-.4l.4-2.1-.4-.3c.1-.6.3-1 .4-1zm-2.4-1.7v4.6h-.2v-1l.1-.2v-.8V62.2zm11.4-1.8l.1.3v.7-1zm-1.7-.7v1.6-1.7zm1-.9l-.1 1.4V58.8h.1zm-1.7-1.1l.3.3-.1.3c-.2 0-.4-.2-.5-.6h.3zm-7 1.9c0-1.4.1-2.2.4-2.2v.2c-.2.7-.3 1.6-.4 3V72 59.6zm-.4-2v.5l-.2.6h-.3v-1l.2-.3c.2 0 .3.1.3.2zm-1.2-.2a5 5 0 00-.1 1.2v-1.2h.1zm-.6 0V57v.1l-.1 1.4-.2-.2v-.5c0-.3 0-.6.2-.9l.1.4zm8.3-1h-.1c-.2.2-.5.3-.8.3V57c.5.2.7.4.7.5 1 .5 1.4 1.2 1.4 2v10.3l.1 2-.1 4.3V77.8v-1.5-.7h.4v4.6a45.6 45.6 0 01-.2 3.5v1.7l-.2.8v4.2l.2 2s-.2.5-.2 1.5c-.4 1.8-.7 3-1.1 3.4-.6 1.1-1.1 1.7-1.6 1.7l-.6-.1v.1l-1.2-.3c-.3 0-.7-.7-1.4-2-.4-.6-.6-2.5-.6-5.8V88v-.5-4.1l.1-.4v-4l-.1-.2V62.5c0-1.6.2-2.5.5-2.8l-.1-.2.1-.4c.8-.7 1.3-1.5 1.6-2.5l-.2-.3-.9.5v-.1h-1.3l-.2-.1c-.6 0-1.4 0-2.3-.3l-.1.4v-.4l-.4.2c-.1 0-.2 0-.3-.2a2 2 0 01-.6.3l-.2-.1h-.2-.9l-.4-.2h-.1s-.2.2-.2.5c.3 0 1 .8 2.4 2.4v6.5l-.1 1v.4l.2 1h-.1v3l-.1.2-.4 10 .5 3.8h-.5l.5 2.3v.4l.6 4-.1 1.2c.8 3.1 1.7 5.6 2.8 7.5 1 1 1.7 1.4 2.4 1.4l.2-.2v.2l1.7-.4c1.8-.7 2.7-1.3 2.7-1.8a9.3 9.3 0 002.1-5.7v-.8h.2c0 .4 0 .5.3.5v-5.5l-.1-.2V83.2l.1-.1V63l-.1-.2v-3.9c1-1.2 1.5-1.8 1.8-1.9V57c0-.4-1.4-.6-4.3-.6l-1.2.1zM304.6 113.8v.1h.3v.1h-.4v-.2zm-2.3-2V113.5v-1.5zm5.6-2.3v.4l-.4.7.2-1.1h.2zm-7.5-3.5l-.2 2v.2h-.2l-.3-1 .5-1.2h.2zm3-.1h.2v.2l-.6.7c0-.3 0-.6.3-1zm-2.4-.4c-.6 1.4-.8 2.2-.8 2.5 0 .6.2 1.4.8 2.4v.1h-.2l-.6-1.2V107.4c.3-1.2.6-1.9.8-1.9zm1-.6a31 31 0 01-1 3.6c0-1.5.3-2.7 1-3.6zm7.2-2.2V104.7l.1.3-.1 1v-3.3zm2.1-1v.9l-.1 1.1v-.2l.1-1.7zm-.8 2.8v-2.8 1.3c-.3 2.8-.5 4.2-.8 4.2.4-1.8.7-2.7.8-2.7zm-.9-3.3V102.6c0 1.4-.2 2.1-.4 2.1 0-.2.1-.6.4-1l-.4-.2.5-1.5v-.8zm-.8-.5V102.6l-.1.1v-2zm2.5-1.5l.1.7v1h-.1v-1.7zm-8.1-1.9l.4 1.3v.2c-.3 0-.4-.4-.4-1.1v-.4zm5.6-.6V97.6v-.9zm2.1 0l-.4.3-.1.2v1.6c.4 0 .5 0 .5.3l-.4.7v3.9h-.6l.6-7v-.3c.3 0 .4.1.4.3zm-3.7 1c.2-.6.4-1.1.7-1.3 0 .5-.3 1-1 1.8V98c0-.3.2-.4.3-.4zm-4.7-1.3v1s-.2-.2-.2-.6v-.4l.1-.2.1.2zm-1.5-.9v1h.5c-.2-.1-.4-.4-.5-.8v-.2zm8.2 0V102.5 97.8v-.4-1.9zm2.1-5.8v.9l-.8.6.8.4-.8.7-.1.2V93.4l1 .6-1 1.4.5-1.5-.4-.7v-.6l.4-1.8-.4-1.1h.8zm-11.6-1.3V91v-.3l-.1-2.2v-.1h.1zm2.6-.2v4l-.4.8h.4v-1.9l.1-.3v-2.6zM301 88c.3 1 .5 2.1.5 3.4v.5h-.5V88zm7.8-.2v3.5-1.8l-.1-.6v-1.1h.1zm.4-.5v2.3-1.2-1zm.8-1l.5.6-.6 6 .6 1.1c-.3 0-.6.2-.9.6l.3 3.5.6.3c0 .4-.3 1-.9 1.9v-8.7-5.3h.4zm-8.5-1.7v.9-1zm8.1-.5v.6l.9.5c-.6 0-.9.1-.9.3V84zm-9.8-.6c0 2.6.2 5 .4 7l-.1.2a25 25 0 01-.4-4.4V84.4h.1v-.9zm-.4-.3v1l-.2-.8c0-.1 0-.2.2-.2zm.4-1v1.2-1.1zm10.7-2.8v.6l.8.6-.8.6.8.1-.8 1.4v3.5V85c.3 0 .4 0 .4-.2l-.4-.2v-.3l.4-.8-.4-1.1-.1-.3c0-.1.2-.3.5-.4l-.4-1.2v-1.1zm-1.1-1.4l.3.1V80l-.4.2h-.1V78h.2zm-7-.1v6.5l-.1.3v2.7c0 .2 0 .5-.2.8v.2h.2v4.9l-.8-4.3V85.9v.3l-.1.4.4.7h.2V86l-.2-.5.2-.7v-2l.3-.6v-.1-4.3zm5.6-2.3h.3v.7c0-.3 0-.5-.2-.5h-.2v.2c-.2 0-.4 0-.5-.3v-.1h.6zm-8.3-.7V76h-.1l-.2 2.4.2.5c-.2 0-.2 0-.2.2v-1.4a24.6 24.6 0 010-1.8v-1.2c.2 0 .3 0 .3.2zm1.3-1.3v18.1l-.1.2c-.3 0-.5-1.9-.7-5.6v-1.6-.4V76.6l.8-3zm-1.2-.2v1h-.1v-1h.1zm2.5-.2c-.2 1.8-.2 3-.2 3.7l-.2.6h.2c-.3 1-.4 2.1-.4 3.2l-.2.7v1.7l-.1-1.2V74l.6-1h.3zm-.7-2.6v.7l-.1.3v-1h.1zm.6-1.7V71.8l-.2.3h.2l-.3 3.6h.4v-2.5-2.6l-.4-1.4.4-.3zm.1-1.6V69v-1.7zm8.7-2l.3.6v1.2-.8l-.8-1h.5zm-7.6-1.7l-.2 2.6v3.9l-.3.3V70 68.3l.1-.8v-.1c0-2.3.1-3.6.2-3.9l.2.1zm6.4-.5c.7.4 1.1 1 1.1 1.9h-.5c-.2 0-.5-.4-.8-1.5v-.4h.2zm1.6.6v1c-.4 0-.7-.3-1-1v-.9c.4 0 .8.3 1 1zm-2.1-2.2l.5 1h-.2c-.3-.2-.4-.5-.4-1zm2-.3c0-1.3 0-1.9.2-1.9l-.2 2.4.1.2v.2h-.2c-.2 0-.5-.2-.7-.8h.8zM308 59c.6 0 1 .6 1.2 1.8a7 7 0 01-1.3-1.7v-.1zm-2.4-1.3c-.5.8-.9 1.1-1.1 1.1v-.2l1.1-1zm5.5-.4l-.9 3h-.1l-.2-.2a9 9 0 011.2-2.8zm.2-2.6v1.1l-.8 3.8h-.2a8.2 8.2 0 00-3.9-3.2c-1.2.4-2.1 1-2.8 1.8-1.7 2-2.6 3.8-2.6 5.1-.7.9-1.4 4-2.2 9.7V76.8a62 62 0 000 4v7.7l.9 6.2c.5 2.6 1.2 4.2 2.2 5 .7 1 1.5 1.7 2.3 1.7h.1c.4 0 1-.3 1.6-.7.4 0 1-.9 1.7-2.6l.4.2-.1.5.4.7-.4.4h.4c-.3 0-.4.5-.5 1.3h.1v2.8c0 2.6-.4 5.2-1.2 7.7 0 .6-.7.9-2.2.9h-.2c-.9-.4-1.4-1.1-1.4-2 0-.2.1-.4.3-.5.3 0 .8-.8 1.3-2.2 0-.9-.2-1.7-.4-2.6l.4.2h.3v-.3l-.8-.6c-.8-.8-1.2-1.2-1.4-1.2h-1.4c-.2 0-.7.5-1.5 1.7-.6 0-1 1-1 3l.2 1.9v1.2c0 .5 1 1.5 2.8 3 .2.4 1.4.8 3.4 1h.3c1.2 0 2.2-.3 3-1 .6-.4 1.3-1 2-1.9.3-.3.6-1.2 1-2.6v-8.2h-.1V97.6l.1-.5v-9.4l-.1-.1v-9.4l.2-.8 1.2-2-.1-.2h-1V75h.2V75H310c-1.5 0-2.2.1-2.2.2-1 .2-1.4.4-1.5.5h-.6v.2l.4.1h.2l-.1.6v.1l.6-.1.4 1.6c.3.3.5 1.2.7 2.8V85l-.1 3.3v.9h.1v-.8V94.7c0 .4-.4 1.2-1.2 2.5-.6 1-1.1 1.5-1.7 1.5v-.4c0-.1-.1-.2-.3-.2l-.1.2a1 1 0 01-.1-.5v-.6h-.4c-.4 0-.7-1-1-3.2v-4.2-1.6-1.6a231.4 231.4 0 01-.2-8.5c0-2.6.2-6 .5-10.1v-.3c0-2.2.1-3.4.2-3.4.2-2.2.4-3.3.6-3.3h.2c0-.4.3-.6.5-.6v-.1l-.1-.3c.5-.9 1.2-1.3 2.2-1.3v.1a10 10 0 011.5 1.8c1 2.3 1.7 4.5 2 6.7.2 1.8.4 2.7.5 2.7l.4 1.3.2-.1c-.2-.8-.3-1.7-.3-2.5v-1.4-.1a38 38 0 01.2-3.7c.1-5.5.7-8.3.4-9.7l-.1-.5c-.3 0-.5.5-.5 1.3zM321.2 99.2l-.5.4.5-.4zm2.6-3.5v.6-.2c-.2 0-.4.1-.4.3v1-.7c0-.3.1-.7.4-1zm0-2.3v1.3-1.3zm-6.7-2l.2.6v.5l-.4 1.2v-2.3h.2zm8-2.5v1.4h-.5l.5-1.4zm-10.2.2l-.1 1.5v.1V89.1zm2.2-1.9l.2 2c-.2.8-.4 1.4-.4 1.9v-.5-3.5l.2.1zm8.4-1.7V87v-.1l.1-.2v-1zm-.9-.4v3.3V85zm-8.5-1.4l.1.6h-.1V92v-8.3zm10.3-.6v2l-.1.2a22 22 0 01-.8 6.9v-5-1.6-.4l.6-1.2h-.3l.3-.9h.3zm-9-.2v2.5l-.5-2.3.5-.2zm8.1-1.1V85v-.3V81.8zm.9-.1v.2l-.1.2v1V82v-.3zm-9.5-1h.4v1.9h-.4l-.1-1.7.1-.1zm-2.6-.4v7.2l-.4.2v-.6l.4-1.5-.4-.5.4-.1-.4-.2v-2.9l.4-.6-.4-1h.4zm.5-.8V81v-1.4zm10.7-1v2.7l-.5 4.2v1.4h-.1l.2-.4-.2-.4.2-1-.2-.6.2-.7v-1.9l-.2-.7.2-2.7.4.1zm-9.4-.7v4.3-4.3zm-1.1-3.5V76h-.2v-1.3c0-.2 0-.2.2-.3zm1-.1c0 .2 0 .3.2.4l-.1.7V76.7 76v-.5-1.4zm8.6-1.1l.5 2.2-.2.6v.2l.2.2h-.2v.3c.1 0 .2.2.2.7v.8c-.3 0-.4.2-.5.5v.1l.5 1.5v.2l-.5.2.5 1.3c0 .4-.2 1-.5 1.7v-4.3l.1-.2v-6zm-9.8-.8v2.4-2.4zm12.9 0v5.6c-.2.8-.3 1.2-.5 1.2v-1.2l.5-.6c-.4 0-.5-.2-.6-.6l.1-.6v-1.5V72.2h.5zm-13.4-1v.7c0 .4-.1.8-.4 1 .3.4.4.8.4 1.2v2c0 1.4-.1 2-.4 2V78l.4-.7-.4-.3v-.2l.4-.1-.4-1v-.2h.4l-.4-.7v-3.4h.4zm-.3 0V76.6l-.2.2h.1l-.2 3.4h-.1V77 77v-.3c0-2.4.2-4.1.3-5.4zm.8-.4v1.3-1.3zm.9-3v9.7a30 30 0 010 2v4.6l-.1.2V84.7l.1.6V87.7l-.5-3.6c0-1.2.1-3 .4-5.5l-.4-.6.4-.3-.4-2.6v-6.4c.2-.5.3-.8.5-.8zm4.3-.4c0 .8.1 1.3.4 1.4v.1h-.3c-.2 0-.3-.4-.3-1v-.2l.2-.3zm4.6-.1V69c0 .5.2 1.1.5 2l-.5.1v.1l.5.2h-.1c-.2 0-.3 0-.4-.2v-3.8zm-7.3 0c0 3.4-.1 6.2-.4 8.4v-3.4-5h.4zm9.5-.2V71h.4l-.3 1.4v1.3l-.1 2 .4.3c-.2 0-.3-.4-.4-1.3v-7.5zm-1.7-.2V68 67zm-7.1-.6c0 .2.1.4.4.7v.8h-.2l-.5-.5v-1h.3zm7.5-.4v11V66zm.9-.5v.5l-.1.4v5.7-6.6zm-4-.1v.1c0 .4-.1 1-.5 1.5l.5-1.6zm-4.6-1V66.2c-.2.5-.3.7-.5.7v-.1l.2-1.3v-.2-1.1c.2 0 .3 0 .3.2zm-.9-.7l-.2.8v.2h-.2v-1.1l.4.1zm5.2-1.3l.1.5v.4l-.2-.2v-.7h.1zm-2.3-3.2l-1 2.8c0-.6.1-1.5.6-2.8h.4zm.1 1l1.5-1.6c.4 0 .9.4 1.4 1.1.6 1 1 4.2 1.5 9.3v4.4h-.5v-2.6 7.7c0 3-.2 5.7-.5 8.3a48.4 48.4 0 01-.5 8.7c0 1-.8 1.9-2.3 2.5l-1-.4c-.2-.6-.4-.9-.5-.9-.6 0-1-.6-1.2-1.8 0 0 .1-.2.4-.3l-.4-8v-1l-.1-.2v-14l.2-.2-.1-.1v-1.5-.2l-.3 4.3-.1-1.3.1-1.1-.2-.1V70c0-.4.2-1 .5-1.7l.4.3c.6.8 1.2 1.2 1.7 1.2h.5c.4 0 .6 0 .8-.3.6 0 1.2-1.2 2-3.7v-.3-.7-1.6c-.3-1.7-.6-2.6-1.2-2.6-1 .6-1.6 1.2-1.6 1.8 0 .1 0 .8.3 2v.3c0 .6-.1 1-.4 1-.2 0-.2-.1-.2-.2-.4 0-.6-.4-.8-1.3 0-.3 0-.6.2-.9 0 0 0-.2-.3-.3.3-1.6.5-2.5.7-2.7zm2-4.3h-1.2c-.6 0-1.3.4-2.1 1.1l-.3-.3h-.2l-.7.4a13 13 0 00-2.2 4.9 28.9 28.9 0 00-2.1 9v.5l-.1.2v11.9l.4 4.3c0 1.4.1 2.8.5 4.3 0 1.7.7 3.6 2 6 1.6 1.9 3.2 2.8 4.5 2.8h.5a3 3 0 001.2-.3 8.6 8.6 0 003-3c1.1-1.6 2.1-5.4 3-11.4l.4-6.5V74.9c0-4.3-.5-8.4-1.6-12.2-.4-1.4-.9-2.8-1.5-4l-.2.2c-.7-1.3-1.3-2-1.7-2.3-.8-.2-1.2-.4-1.2-.7h-.4z"/>
  </g>
</svg>
